# xmcd
#
# Track frame offsets: 
#        150
#        21085
#        36283
#        61957
#        79167
#        97746
#        116674
#        136158
#        150167
#        163628
#        182342
#
# Disc length: 2663 seconds
#
# Revision: 0
# Processed by: cddbd v1.5.2PL0 Copyright (c) Steve Scherf et al.
# Submitted via: ExactAudioCopy v1.0b6
#
DISCID=770a650b
DTITLE=Eric Darius - Retro Forward (2014)
DYEAR=2014
DGENRE=Smooth Jazz Sax
TTITLE0=All Around The World
TTITLE1=Retro Forward
TTITLE2=Can't Get Enough Of Your Love (Feat. Terry Drexler)
TTITLE3=Back To You
TTITLE4=Broke Down
TTITLE5=What's Her Name (Feat. Eric Dawkins)
TTITLE6=Never
TTITLE7=Healin'
TTITLE8=Heaven Sent
TTITLE9=Forever Yours (Feat. Dessy Di Laura)
TTITLE10=Happy
EXTD=
EXTT0=
EXTT1=
EXTT2=
EXTT3=
EXTT4=
EXTT5=
EXTT6=
EXTT7=
EXTT8=
EXTT9=
EXTT10=
PLAYORDER=
